<svg width="22" height="22" viewBox="0 0 22 22" fill="none" xmlns="http://www.w3.org/2000/svg">
<path d="M13.7487 6.41671C13.489 6.41671 13.2714 6.32871 13.096 6.15271C12.9206 5.97671 12.8326 5.75915 12.832 5.50004C12.8314 5.24093 12.9194 5.02337 13.096 4.84737C13.2726 4.67137 13.4902 4.58337 13.7487 4.58337H19.2487C19.5084 4.58337 19.7263 4.67137 19.9023 4.84737C20.0783 5.02337 20.166 5.24093 20.1654 5.50004C20.1648 5.75915 20.0768 5.97701 19.9014 6.15362C19.726 6.33024 19.5084 6.41793 19.2487 6.41671H13.7487ZM13.7487 10.0834C13.489 10.0834 13.2714 9.99537 13.096 9.81937C12.9206 9.64337 12.8326 9.42582 12.832 9.16671C12.8314 8.9076 12.9194 8.69004 13.096 8.51404C13.2726 8.33804 13.4902 8.25004 13.7487 8.25004H19.2487C19.5084 8.25004 19.7263 8.33804 19.9023 8.51404C20.0783 8.69004 20.166 8.9076 20.1654 9.16671C20.1648 9.42582 20.0768 9.64368 19.9014 9.82029C19.726 9.9969 19.5084 10.0846 19.2487 10.0834H13.7487ZM13.7487 13.75C13.489 13.75 13.2714 13.662 13.096 13.486C12.9206 13.31 12.8326 13.0925 12.832 12.8334C12.8314 12.5743 12.9194 12.3567 13.096 12.1807C13.2726 12.0047 13.4902 11.9167 13.7487 11.9167H19.2487C19.5084 11.9167 19.7263 12.0047 19.9023 12.1807C20.0783 12.3567 20.166 12.5743 20.1654 12.8334C20.1648 13.0925 20.0768 13.3103 19.9014 13.487C19.726 13.6636 19.5084 13.7513 19.2487 13.75H13.7487ZM7.33203 12.8334C6.56814 12.8334 5.91884 12.566 5.38411 12.0313C4.84939 11.4966 4.58203 10.8473 4.58203 10.0834C4.58203 9.31949 4.84939 8.67018 5.38411 8.13546C5.91884 7.60074 6.56814 7.33337 7.33203 7.33337C8.09592 7.33337 8.74523 7.60074 9.27995 8.13546C9.81467 8.67018 10.082 9.31949 10.082 10.0834C10.082 10.8473 9.81467 11.4966 9.27995 12.0313C8.74523 12.566 8.09592 12.8334 7.33203 12.8334ZM1.83203 17.4167V16.5917C1.83203 16.2709 1.90842 15.9653 2.0612 15.675C2.21398 15.3848 2.42786 15.1556 2.70286 14.9875C3.39036 14.575 4.12003 14.2658 4.89186 14.0599C5.6637 13.8539 6.47709 13.7507 7.33203 13.75C8.18698 13.7494 9.00067 13.8527 9.77311 14.0599C10.5456 14.267 11.2749 14.5763 11.9612 14.9875C12.2362 15.1556 12.4501 15.3848 12.6029 15.675C12.7556 15.9653 12.832 16.2709 12.832 16.5917V17.4167C12.832 17.6764 12.744 17.8943 12.568 18.0703C12.392 18.2463 12.1745 18.334 11.9154 18.3334H2.7487C2.48898 18.3334 2.27142 18.2454 2.09603 18.0694C1.92064 17.8934 1.83264 17.6758 1.83203 17.4167ZM3.80286 16.5H10.8612C10.3265 16.1945 9.7612 15.9653 9.16536 15.8125C8.56953 15.6598 7.95842 15.5834 7.33203 15.5834C6.70564 15.5834 6.09453 15.6598 5.4987 15.8125C4.90286 15.9653 4.33759 16.1945 3.80286 16.5ZM7.33203 11C7.59175 11 7.80962 10.912 7.98561 10.736C8.16161 10.56 8.24931 10.3425 8.2487 10.0834C8.24809 9.82426 8.16009 9.60671 7.9847 9.43071C7.80931 9.25471 7.59175 9.16671 7.33203 9.16671C7.07231 9.16671 6.85475 9.25471 6.67936 9.43071C6.50398 9.60671 6.41598 9.82426 6.41536 10.0834C6.41475 10.3425 6.50275 10.5603 6.67936 10.737C6.85598 10.9136 7.07353 11.0013 7.33203 11Z" fill="black"/>
</svg>
