<svg width="22" height="22" viewBox="0 0 22 22" fill="none" xmlns="http://www.w3.org/2000/svg">
<path d="M4.6475 4.12502L4.95688 4.73689L5.335 5.50002H8.25V8.93752H2.75V4.12502H4.6475ZM5.07375 2.75002H2.0625C1.88016 2.75002 1.7053 2.82245 1.57636 2.95138C1.44743 3.08031 1.375 3.25518 1.375 3.43752V9.62502C1.375 9.80735 1.44743 9.98222 1.57636 10.1112C1.7053 10.2401 1.88016 10.3125 2.0625 10.3125H8.9375C9.11984 10.3125 9.2947 10.2401 9.42364 10.1112C9.55257 9.98222 9.625 9.80735 9.625 9.62502V4.81252C9.625 4.63018 9.55257 4.45531 9.42364 4.32638C9.2947 4.19745 9.11984 4.12502 8.9375 4.12502H6.1875L5.6925 3.12814C5.63484 3.01372 5.54636 2.91768 5.43703 2.85087C5.3277 2.78406 5.20188 2.74912 5.07375 2.75002ZM15.6475 4.12502L15.9569 4.73689L16.335 5.50002H19.25V8.93752H13.75V4.12502H15.6475ZM16.0737 2.75002H13.0625C12.8802 2.75002 12.7053 2.82245 12.5764 2.95138C12.4474 3.08031 12.375 3.25518 12.375 3.43752V9.62502C12.375 9.80735 12.4474 9.98222 12.5764 10.1112C12.7053 10.2401 12.8802 10.3125 13.0625 10.3125H19.9375C20.1198 10.3125 20.2947 10.2401 20.4236 10.1112C20.5526 9.98222 20.625 9.80735 20.625 9.62502V4.81252C20.625 4.63018 20.5526 4.45531 20.4236 4.32638C20.2947 4.19745 20.1198 4.12502 19.9375 4.12502H17.1875L16.6925 3.12814C16.6348 3.01372 16.5464 2.91768 16.437 2.85087C16.3277 2.78406 16.2019 2.74912 16.0737 2.75002ZM4.6475 13.0625L4.95688 13.6744L5.335 14.4375H8.25V17.875H2.75V13.0625H4.6475ZM5.07375 11.6875H2.0625C1.88016 11.6875 1.7053 11.7599 1.57636 11.8889C1.44743 12.0178 1.375 12.1927 1.375 12.375V18.5625C1.375 18.7449 1.44743 18.9197 1.57636 19.0487C1.7053 19.1776 1.88016 19.25 2.0625 19.25H8.9375C9.11984 19.25 9.2947 19.1776 9.42364 19.0487C9.55257 18.9197 9.625 18.7449 9.625 18.5625V13.75C9.625 13.5677 9.55257 13.3928 9.42364 13.2639C9.2947 13.1349 9.11984 13.0625 8.9375 13.0625H6.1875L5.6925 12.0656C5.63484 11.9512 5.54636 11.8552 5.43703 11.7884C5.3277 11.7216 5.20188 11.6866 5.07375 11.6875ZM15.6475 13.0625L15.9569 13.6744L16.335 14.4375H19.25V17.875H13.75V13.0625H15.6475ZM16.0737 11.6875H13.0625C12.8802 11.6875 12.7053 11.7599 12.5764 11.8889C12.4474 12.0178 12.375 12.1927 12.375 12.375V18.5625C12.375 18.7449 12.4474 18.9197 12.5764 19.0487C12.7053 19.1776 12.8802 19.25 13.0625 19.25H19.9375C20.1198 19.25 20.2947 19.1776 20.4236 19.0487C20.5526 18.9197 20.625 18.7449 20.625 18.5625V13.75C20.625 13.5677 20.5526 13.3928 20.4236 13.2639C20.2947 13.1349 20.1198 13.0625 19.9375 13.0625H17.1875L16.6925 12.0656C16.6348 11.9512 16.5464 11.8552 16.437 11.7884C16.3277 11.7216 16.2019 11.6866 16.0737 11.6875Z" fill="black"/>
</svg>
