<svg width="25" height="25" viewBox="0 0 25 25" fill="none" xmlns="http://www.w3.org/2000/svg">
<path d="M6.25065 4.16659C6.25065 4.71912 6.03116 5.24902 5.64046 5.63972C5.24976 6.03043 4.71985 6.24992 4.16732 6.24992C3.61478 6.24992 3.08488 6.03043 2.69418 5.63972C2.30348 5.24902 2.08398 4.71912 2.08398 4.16659C2.08398 3.61405 2.30348 3.08415 2.69418 2.69345C3.08488 2.30275 3.61478 2.08325 4.16732 2.08325C4.71985 2.08325 5.24976 2.30275 5.64046 2.69345C6.03116 3.08415 6.25065 3.61405 6.25065 4.16659ZM22.9173 4.16659C22.9173 4.71912 22.6978 5.24902 22.3071 5.63972C21.9164 6.03043 21.3865 6.24992 20.834 6.24992C20.2815 6.24992 19.7515 6.03043 19.3608 5.63972C18.9701 5.24902 18.7507 4.71912 18.7507 4.16659C18.7507 3.61405 18.9701 3.08415 19.3608 2.69345C19.7515 2.30275 20.2815 2.08325 20.834 2.08325C21.3865 2.08325 21.9164 2.30275 22.3071 2.69345C22.6978 3.08415 22.9173 3.61405 22.9173 4.16659ZM22.9173 20.8333C22.9173 21.3858 22.6978 21.9157 22.3071 22.3064C21.9164 22.6971 21.3865 22.9166 20.834 22.9166C20.2815 22.9166 19.7515 22.6971 19.3608 22.3064C18.9701 21.9157 18.7507 21.3858 18.7507 20.8333C18.7507 20.2807 18.9701 19.7508 19.3608 19.3601C19.7515 18.9694 20.2815 18.7499 20.834 18.7499C21.3865 18.7499 21.9164 18.9694 22.3071 19.3601C22.6978 19.7508 22.9173 20.2807 22.9173 20.8333ZM6.25065 20.8333C6.25065 21.3858 6.03116 21.9157 5.64046 22.3064C5.24976 22.6971 4.71985 22.9166 4.16732 22.9166C3.61478 22.9166 3.08488 22.6971 2.69418 22.3064C2.30348 21.9157 2.08398 21.3858 2.08398 20.8333C2.08398 20.2807 2.30348 19.7508 2.69418 19.3601C3.08488 18.9694 3.61478 18.7499 4.16732 18.7499C4.71985 18.7499 5.24976 18.9694 5.64046 19.3601C6.03116 19.7508 6.25065 20.2807 6.25065 20.8333ZM17.1882 9.37492C17.1882 8.8895 17.1882 8.64679 17.109 8.45513C17.003 8.2004 16.8004 7.9981 16.5454 7.89263C16.3538 7.81242 16.1111 7.81242 15.6257 7.81242H9.37565C8.89023 7.81242 8.64753 7.81242 8.45586 7.89159C8.20113 7.99753 7.99884 8.2002 7.89336 8.45513C7.81315 8.64679 7.81315 8.8895 7.81315 9.37492C7.81315 9.86034 7.81315 10.103 7.89232 10.2947C7.99827 10.5494 8.20094 10.7517 8.45586 10.8572C8.64753 10.9374 8.89023 10.9374 9.37565 10.9374H15.6257C16.1111 10.9374 16.3538 10.9374 16.5454 10.8583C16.8002 10.7523 17.0025 10.5496 17.1079 10.2947C17.1882 10.103 17.1882 9.86034 17.1882 9.37492ZM17.1882 15.6249C17.1882 15.1395 17.1882 14.8968 17.109 14.7051C17.003 14.4504 16.8004 14.2481 16.5454 14.1426C16.3538 14.0624 16.1111 14.0624 15.6257 14.0624H9.37565C8.89023 14.0624 8.64753 14.0624 8.45586 14.1416C8.20113 14.2475 7.99884 14.4502 7.89336 14.7051C7.81315 14.8968 7.81315 15.1395 7.81315 15.6249C7.81315 16.1103 7.81315 16.353 7.89232 16.5447C7.99827 16.7994 8.20094 17.0017 8.45586 17.1072C8.64753 17.1874 8.89023 17.1874 9.37565 17.1874H15.6257C16.1111 17.1874 16.3538 17.1874 16.5454 17.1083C16.8002 17.0023 17.0025 16.7996 17.1079 16.5447C17.1882 16.353 17.1882 16.1103 17.1882 15.6249Z" stroke="black" stroke-width="1.5" stroke-linecap="round" stroke-linejoin="round"/>
</svg>
